<?xml version="1.0" encoding="utf-8"?>
<!-- Generator: Adobe Illustrator 24.1.2, SVG Export Plug-In . SVG Version: 6.00 Build 0)  -->
<svg version="1.1" id="Layer_1" xmlns="http://www.w3.org/2000/svg" xmlns:xlink="http://www.w3.org/1999/xlink" x="0px" y="0px"
	 viewBox="0 0 1366 768" style="enable-background:new 0 0 1366 768;" xml:space="preserve">
<style type="text/css">
	.st0{fill:#3F3D56;}
	.st1{fill:#A0616A;}
	.st2{fill:#2F2E41;}
	.st3{fill:#ABE274;}
	.st4{fill:#FFFFFF;}
	.st5{fill:#E6E6E6;}
	.st6{opacity:0.2;enable-background:new    ;}
	.st7{fill:#F9A825;}
	.st8{font-family:'Roboto'; font-weight: 800}
	.st9{font-size:150px;}
</style>
<rect x="819.11" y="558.58" class="st0" width="410.89" height="1.41"/>
<path class="st1" d="M1085.64,318.25c2.49,2.92,2.13,7.31-0.79,9.8c-0.18,0.16-0.37,0.3-0.57,0.44l-33.91,23.28l-14.93,9.96
	c-1.76,1.17-4.12,0.82-5.45-0.82l0,0c-1.44-1.75-1.18-4.34,0.58-5.78c0.17-0.14,0.35-0.26,0.54-0.37l14.46-8.4l25.24-24.04
	l-16.23-17.43l12.02-9.02L1085.64,318.25z"/>
<polygon class="st1" points="1005.89,537.48 997.6,537.48 992.67,468.96 1013.71,468.36 "/>
<path class="st2" d="M1006.49,559.71c-2.21,1.01-4.06-7.17-5.93-5.34c-5.22,5.13-13.21,6.25-20.18,4.01l2.44-0.03
	c-1.72-0.55-2.66-2.39-2.11-4.1c0.02-0.05,0.03-0.1,0.05-0.15l0,0c0.38-1,1.22-1.76,2.26-2.02l5.55-1.39l8.71-15.33l8.9-0.6l0,0
	c4.02,5.12,5.47,11.8,3.93,18.13C1009.32,556.2,1008.07,559,1006.49,559.71z"/>
<polygon class="st1" points="1061.13,537.48 1052.83,537.48 1047.9,468.96 1069.54,464.76 "/>
<path class="st2" d="M1061.73,559.71c-2.21,1.01-4.06-7.17-5.93-5.34c-5.22,5.13-13.21,6.25-20.18,4.01l2.44-0.03
	c-1.72-0.55-2.66-2.39-2.11-4.1c0.02-0.05,0.03-0.1,0.05-0.15l0,0c0.38-1,1.22-1.76,2.26-2.02l5.55-1.39l8.71-15.33l9.5-1.2
	l0.24,0.39c3.71,5.99,4.67,13.28,2.62,20.02C1064.1,557.12,1063.03,559.12,1061.73,559.71z"/>
<path class="st3" d="M1070.53,297.42c-7.63,1.06-12.91,5.24-15.06,13.57l-14.02-25.89c-1.72-3.4-0.68-7.55,2.44-9.74l0,0
	c3.33-2.33,7.89-1.66,10.41,1.52L1070.53,297.42z"/>
<path class="st2" d="M1085.23,461.75c-34.09,15.08-68.98,16.94-104.57,7.21c13-50.41,28.34-95.98,28.25-133.42l34.86-3.01l5.37,8.51
	c12.73,20.19,21.52,42.61,25.9,66.07L1085.23,461.75z"/>
<circle class="st1" cx="1028.13" cy="239.98" r="18.03"/>
<polygon class="st1" points="1047.96,271.83 1025.73,273.04 1022.12,253.2 1040.15,250.2 "/>
<path class="st3" d="M1045.56,335.54l-24.36,0.69l-12.3,1.72c-6.04-19.94-11.12-39.84,1.2-56.49l14.42-14.42l21.64-0.6l0.29,0.16
	c7.08,4.05,10.39,12.48,7.98,20.27C1049.06,304.31,1045.61,320.78,1045.56,335.54z"/>
<path class="st1" d="M1008.3,391.43l-1.51,20.65c-0.17,2.29-1.99,4.1-4.28,4.25l0,0c-2.54,0.17-4.73-1.75-4.9-4.28
	c-0.01-0.14-0.01-0.28-0.01-0.42l0.48-20.21l15.03-57.1l0.6-34.86l16.83-0.6l-1.2,40.27L1008.3,391.43z"/>
<path class="st3" d="M1032.34,301.88c-7.13-2.9-13.8-1.93-19.83,4.21l0.83-29.43c0.22-3.8,3.19-6.87,6.99-7.2l0,0
	c4.05-0.35,7.67,2.51,8.25,6.53L1032.34,301.88z"/>
<path class="st2" d="M1066.29,320.21H1011c12.9-34.16,17.06-65.93,0-93.16c0.29-8.18,10.78-15.27,18.93-14.48l0,0
	c9.62,0.92,22.55,7.99,24.35,17.49L1066.29,320.21z"/>
<path class="st0" d="M890.08,211.08h-2.52v-69.09c0-22.08-17.9-39.99-39.99-39.99c0,0,0,0,0,0H701.2
	c-22.08,0-39.99,17.9-39.99,39.99c0,0,0,0,0,0v379.03c0,22.08,17.9,39.99,39.99,39.99c0,0,0,0,0,0h146.37
	c22.08,0,39.99-17.9,39.99-39.99c0,0,0,0,0,0V260.25h2.52V211.08z"/>
<path class="st4" d="M849.18,112.4h-19.11c2.96,7.26-0.52,15.54-7.78,18.49c-1.7,0.69-3.52,1.05-5.36,1.05h-83.86
	c-7.84,0-14.19-6.35-14.19-14.19c0-1.84,0.36-3.66,1.05-5.36H702.1c-16.49,0-29.86,13.37-29.86,29.86v378.47
	c0,16.49,13.37,29.86,29.86,29.86c0,0,0,0,0,0h147.08c16.49,0,29.86-13.37,29.86-29.86l0,0V142.26
	C879.05,125.77,865.68,112.4,849.18,112.4z"/>
<rect x="698.07" y="171.52" class="st5" width="155.15" height="133.07"/>
<circle class="st3" cx="744.11" cy="321" r="11.35"/>
<polygon class="st4" points="749.79,320.05 745.06,320.05 745.06,315.32 743.16,315.32 743.16,320.05 738.43,320.05 738.43,321.94 
	743.16,321.94 743.16,326.67 745.06,326.67 745.06,321.94 749.79,321.94 "/>
<circle class="st3" cx="804.03" cy="321" r="11.35"/>
<rect x="798.35" y="320.05" class="st4" width="11.35" height="1.89"/>
<path class="st3" d="M781.43,188.12h-12.26c-0.9,0-1.63,0.73-1.63,1.63c0,0,0,0,0,0v5.38c0,0.9,0.73,1.63,1.63,1.63l0,0h2.03v8.06
	h8.2v-8.06h2.03c0.9,0,1.63-0.73,1.63-1.63c0,0,0,0,0,0v-5.38C783.06,188.85,782.33,188.12,781.43,188.12z"/>
<path class="st0" d="M793.71,237.37c-7.51-10.99-11.35-24.07-10.97-37.37c0.01-0.63-0.42-1.19-1.04-1.33v-2.33h-12.95v2.29h-0.18
	c-0.73,0-1.33,0.6-1.33,1.33c0,0,0,0,0,0c0,0.03,0,0.06,0,0.1c1.02,14.22-2.42,26.97-10.33,38.26c-0.46,0.65-0.69,1.43-0.66,2.22
	l1.42,43.8c0.07,2.03,1.73,3.64,3.76,3.66h29.29c2.06-0.02,3.72-1.67,3.76-3.72l0.55-42.52
	C795.05,240.19,794.59,238.66,793.71,237.37z"/>
<path class="st6" d="M778.87,189.87c0,1.94-1.56,3.51-3.5,3.51c-1.94,0-3.51-1.56-3.51-3.5c0,0,0-0.01,0-0.01"/>
<path class="st3" d="M789.07,251.92h-3.55c-0.78-5.08-5.54-8.57-10.62-7.78c-4.01,0.62-7.16,3.77-7.78,7.78h-3.55
	c-1.45,0-2.62,1.17-2.62,2.62c0,0.13,0.01,0.27,0.03,0.4l3.85,25.04h22.12l4.68-24.96c0.27-1.42-0.67-2.79-2.09-3.05
	C789.4,251.93,789.24,251.92,789.07,251.92z"/>
<rect x="698.07" y="358.84" class="st5" width="155.15" height="133.07"/>
<circle class="st3" cx="744.11" cy="508.31" r="11.35"/>
<polygon class="st4" points="749.79,507.36 745.06,507.36 745.06,502.63 743.16,502.63 743.16,507.36 738.43,507.36 738.43,509.26 
	743.16,509.26 743.16,513.99 745.06,513.99 745.06,509.26 749.79,509.26 "/>
<circle class="st3" cx="804.03" cy="508.31" r="11.35"/>
<rect x="798.35" y="507.36" class="st4" width="11.35" height="1.89"/>
<path class="st4" d="M806.19,453.38l0.09,0c5.98,0.05,11.38-3.57,13.61-9.11c9.66-24.43-2.31-52.06-26.74-61.72
	c-24.43-9.66-52.06,2.31-61.72,26.74c-9.41,23.79,1.68,50.75,25.1,61.04c5.43,2.41,11.79,1.23,16-2.97
	C781.43,458.39,793.55,453.36,806.19,453.38z"/>
<circle class="st7" cx="781.75" cy="423.27" r="15.71"/>
<text transform="matrix(1 0 0 1 70 553)"><tspan x="0" y="0" class="st8 st9">BEZORG</tspan><tspan x="0" y="180" class="st8 st9">BOODSCHAPPEN</tspan></text>
</svg>
